<svg width="48" height="48" viewBox="0 0 48 48" fill="none" xmlns="http://www.w3.org/2000/svg">
<g clip-path="url(#clip0_254_57)">
<path d="M10.074 21.26C7.40467 21.26 5.40267 20.532 4.068 19.076C2.75067 17.6027 2.092 15.462 2.092 12.654V2.28H6.096V13.356C6.096 14.9853 6.45133 16.1813 7.162 16.944C7.87267 17.7067 8.852 18.088 10.1 18.088C11.348 18.088 12.3273 17.7067 13.038 16.944C13.7487 16.1813 14.104 14.994 14.104 13.382V2.28H18.108V12.706C18.108 15.4793 17.4407 17.6027 16.106 19.076C14.7713 20.532 12.7607 21.26 10.074 21.26ZM25.1893 21L19.9113 2.28H23.9673L28.3353 19.414H27.0613L30.9613 2.28H35.5113L39.3593 19.414H38.1113L42.5053 2.28H46.3793L41.1013 21H36.6293L32.6513 4.204H33.6913L29.6613 21H25.1893Z" fill="#F2D368"/>
<path d="M11.166 45.26C9.814 45.26 8.566 45.026 7.422 44.558C6.278 44.0727 5.28133 43.3967 4.432 42.53C3.6 41.6633 2.95 40.6407 2.482 39.462C2.014 38.266 1.78 36.966 1.78 35.562C1.78 34.158 2.00533 32.8753 2.456 31.714C2.924 30.5527 3.574 29.5473 4.406 28.698C5.25533 27.8313 6.252 27.1727 7.396 26.722C8.54 26.254 9.79667 26.02 11.166 26.02C12.7087 26.02 14.0953 26.3233 15.326 26.93C16.574 27.5193 17.588 28.36 18.368 29.452C19.1653 30.5267 19.6507 31.792 19.824 33.248H15.924C15.6987 31.9133 15.1527 30.908 14.286 30.232C13.4193 29.5387 12.388 29.192 11.192 29.192C10.1347 29.192 9.19867 29.4433 8.384 29.946C7.58667 30.4487 6.96267 31.1767 6.512 32.13C6.06133 33.066 5.836 34.2013 5.836 35.536C5.836 36.888 6.06133 38.058 6.512 39.046C6.98 40.0167 7.62133 40.7707 8.436 41.308C9.25067 41.828 10.1867 42.088 11.244 42.088C12.3707 42.088 13.3673 41.75 14.234 41.074C15.1007 40.398 15.664 39.3927 15.924 38.058H19.876C19.6507 39.514 19.1393 40.788 18.342 41.88C17.5447 42.9547 16.5307 43.7867 15.3 44.376C14.0693 44.9653 12.6913 45.26 11.166 45.26Z" fill="white"/>
<mask id="path-2-outside-1_254_57" maskUnits="userSpaceOnUse" x="0" y="25" width="22" height="22" fill="black">
<rect fill="white" y="25" width="22" height="22"/>
<path d="M11.166 45.26C9.814 45.26 8.566 45.026 7.422 44.558C6.278 44.0727 5.28133 43.3967 4.432 42.53C3.6 41.6633 2.95 40.6407 2.482 39.462C2.014 38.266 1.78 36.966 1.78 35.562C1.78 34.158 2.00533 32.8753 2.456 31.714C2.924 30.5527 3.574 29.5473 4.406 28.698C5.25533 27.8313 6.252 27.1727 7.396 26.722C8.54 26.254 9.79667 26.02 11.166 26.02C12.7087 26.02 14.0953 26.3233 15.326 26.93C16.574 27.5193 17.588 28.36 18.368 29.452C19.1653 30.5267 19.6507 31.792 19.824 33.248H15.924C15.6987 31.9133 15.1527 30.908 14.286 30.232C13.4193 29.5387 12.388 29.192 11.192 29.192C10.1347 29.192 9.19867 29.4433 8.384 29.946C7.58667 30.4487 6.96267 31.1767 6.512 32.13C6.06133 33.066 5.836 34.2013 5.836 35.536C5.836 36.888 6.06133 38.058 6.512 39.046C6.98 40.0167 7.62133 40.7707 8.436 41.308C9.25067 41.828 10.1867 42.088 11.244 42.088C12.3707 42.088 13.3673 41.75 14.234 41.074C15.1007 40.398 15.664 39.3927 15.924 38.058H19.876C19.6507 39.514 19.1393 40.788 18.342 41.88C17.5447 42.9547 16.5307 43.7867 15.3 44.376C14.0693 44.9653 12.6913 45.26 11.166 45.26Z"/>
</mask>
<path d="M11.166 45.26C9.814 45.26 8.566 45.026 7.422 44.558C6.278 44.0727 5.28133 43.3967 4.432 42.53C3.6 41.6633 2.95 40.6407 2.482 39.462C2.014 38.266 1.78 36.966 1.78 35.562C1.78 34.158 2.00533 32.8753 2.456 31.714C2.924 30.5527 3.574 29.5473 4.406 28.698C5.25533 27.8313 6.252 27.1727 7.396 26.722C8.54 26.254 9.79667 26.02 11.166 26.02C12.7087 26.02 14.0953 26.3233 15.326 26.93C16.574 27.5193 17.588 28.36 18.368 29.452C19.1653 30.5267 19.6507 31.792 19.824 33.248H15.924C15.6987 31.9133 15.1527 30.908 14.286 30.232C13.4193 29.5387 12.388 29.192 11.192 29.192C10.1347 29.192 9.19867 29.4433 8.384 29.946C7.58667 30.4487 6.96267 31.1767 6.512 32.13C6.06133 33.066 5.836 34.2013 5.836 35.536C5.836 36.888 6.06133 38.058 6.512 39.046C6.98 40.0167 7.62133 40.7707 8.436 41.308C9.25067 41.828 10.1867 42.088 11.244 42.088C12.3707 42.088 13.3673 41.75 14.234 41.074C15.1007 40.398 15.664 39.3927 15.924 38.058H19.876C19.6507 39.514 19.1393 40.788 18.342 41.88C17.5447 42.9547 16.5307 43.7867 15.3 44.376C14.0693 44.9653 12.6913 45.26 11.166 45.26Z" fill="white"/>
<path d="M7.422 44.558L7.03142 45.4787L7.04337 45.4835L7.422 44.558ZM4.432 42.53L3.71057 43.2226L3.71779 43.2299L4.432 42.53ZM2.482 39.462L1.55075 39.8264L1.55258 39.831L2.482 39.462ZM2.456 31.714L1.5284 31.3402L1.52373 31.3522L2.456 31.714ZM4.406 28.698L3.69179 27.9981L3.69164 27.9982L4.406 28.698ZM7.396 26.722L7.76256 27.6525L7.77463 27.6475L7.396 26.722ZM15.326 26.93L14.8838 27.8269L14.8914 27.8307L14.899 27.8342L15.326 26.93ZM18.368 29.452L17.5543 30.0332L17.5595 30.0406L17.5649 30.0478L18.368 29.452ZM19.824 33.248V34.248H20.9501L20.817 33.1298L19.824 33.248ZM15.924 33.248L14.938 33.4145L15.0787 34.248H15.924V33.248ZM14.286 30.232L13.6613 31.0129L13.671 31.0205L14.286 30.232ZM8.384 29.946L7.85887 29.0949L7.8507 29.1001L8.384 29.946ZM6.512 32.13L7.41302 32.5638L7.41607 32.5574L6.512 32.13ZM6.512 39.046L5.60218 39.461L5.6066 39.4707L5.61123 39.4803L6.512 39.046ZM8.436 41.308L7.88541 42.1428L7.89165 42.1469L7.89796 42.1509L8.436 41.308ZM14.234 41.074L13.619 40.2855V40.2855L14.234 41.074ZM15.924 38.058V37.058H15.1L14.9425 37.8668L15.924 38.058ZM19.876 38.058L20.8642 38.2109L21.0427 37.058H19.876V38.058ZM18.342 41.88L19.1451 42.4759L19.1496 42.4697L18.342 41.88ZM15.3 44.376L14.8681 43.4741V43.4741L15.3 44.376ZM11.166 45.26V44.26C9.93161 44.26 8.81362 44.0469 7.80063 43.6325L7.422 44.558L7.04337 45.4835C8.31838 46.0051 9.69639 46.26 11.166 46.26V45.26ZM7.422 44.558L7.81255 43.6374C6.78694 43.2023 5.90101 42.6003 5.14621 41.8301L4.432 42.53L3.71779 43.2299C4.66166 44.1931 5.76906 44.943 7.03145 45.4786L7.422 44.558ZM4.432 42.53L5.15339 41.8375C4.41593 41.0693 3.83435 40.1581 3.41142 39.093L2.482 39.462L1.55258 39.831C2.06565 41.1232 2.78407 42.2574 3.71061 43.2225L4.432 42.53ZM2.482 39.462L3.41324 39.0976C2.99474 38.0281 2.78 36.853 2.78 35.562H1.78H0.78C0.78 37.079 1.03326 38.5039 1.55076 39.8264L2.482 39.462ZM1.78 35.562H2.78C2.78 34.2661 2.98769 33.108 3.38827 32.0758L2.456 31.714L1.52373 31.3522C1.02298 32.6426 0.78 34.0499 0.78 35.562H1.78ZM2.456 31.714L3.38352 32.0878C3.80516 31.0415 4.38492 30.1485 5.12036 29.3978L4.406 28.698L3.69164 27.9982C2.76308 28.9461 2.04284 30.0639 1.52848 31.3402L2.456 31.714ZM4.406 28.698L5.12021 29.3979C5.8698 28.633 6.74754 28.0522 7.76252 27.6524L7.396 26.722L7.02948 25.7916C5.75646 26.2931 4.64086 27.0296 3.69179 27.9981L4.406 28.698ZM7.396 26.722L7.77463 27.6475C8.78612 27.2338 9.91249 27.02 11.166 27.02V26.02V25.02C9.68084 25.02 8.29388 25.2742 7.01737 25.7965L7.396 26.722ZM11.166 26.02V27.02C12.5746 27.02 13.807 27.2961 14.8838 27.8269L15.326 26.93L15.7682 26.0331C14.3837 25.3506 12.8428 25.02 11.166 25.02V26.02ZM15.326 26.93L14.899 27.8342C15.9972 28.3528 16.8764 29.0842 17.5543 30.0332L18.368 29.452L19.1817 28.8708C18.2996 27.6358 17.1508 26.6858 15.753 26.0257L15.326 26.93ZM18.368 29.452L17.5649 30.0478C18.2486 30.9694 18.6763 32.0662 18.831 33.3662L19.824 33.248L20.817 33.1298C20.6251 31.5178 20.082 30.0839 19.1711 28.8562L18.368 29.452ZM19.824 33.248V32.248H15.924V33.248V34.248H19.824V33.248ZM15.924 33.248L16.91 33.0815C16.6532 31.5602 16.0078 30.3068 14.901 29.4435L14.286 30.232L13.671 31.0205C14.2975 31.5092 14.7441 32.2665 14.938 33.4145L15.924 33.248ZM14.286 30.232L14.9107 29.4511C13.8525 28.6046 12.5962 28.192 11.192 28.192V29.192V30.192C12.1798 30.192 12.9861 30.4727 13.6613 31.0129L14.286 30.232ZM11.192 29.192V28.192C9.96922 28.192 8.8476 28.4849 7.85889 29.095L8.384 29.946L8.90911 30.797C9.54973 30.4018 10.3001 30.192 11.192 30.192V29.192ZM8.384 29.946L7.8507 29.1001C6.87386 29.7159 6.12992 30.5984 5.60793 31.7026L6.512 32.13L7.41607 32.5574C7.79542 31.7549 8.29948 31.1814 8.9173 30.7919L8.384 29.946ZM6.512 32.13L5.611 31.6962C5.07935 32.8004 4.836 34.0924 4.836 35.536H5.836H6.836C6.836 34.3102 7.04331 33.3316 7.413 32.5638L6.512 32.13ZM5.836 35.536H4.836C4.836 36.9971 5.07939 38.3149 5.60218 39.461L6.512 39.046L7.42182 38.631C7.04327 37.8011 6.836 36.7789 6.836 35.536H5.836ZM6.512 39.046L5.61123 39.4803C6.14925 40.5962 6.90461 41.4959 7.88541 42.1428L8.436 41.308L8.9866 40.4732C8.33805 40.0455 7.81075 39.4371 7.41277 38.6117L6.512 39.046ZM8.436 41.308L7.89796 42.1509C8.88834 42.7831 10.0146 43.088 11.244 43.088V42.088V41.088C10.3587 41.088 9.613 40.8729 8.97404 40.4651L8.436 41.308ZM11.244 42.088V43.088C12.5875 43.088 13.8019 42.6792 14.849 41.8625L14.234 41.074L13.619 40.2855C12.9327 40.8208 12.1539 41.088 11.244 41.088V42.088ZM14.234 41.074L14.849 41.8625C15.948 41.0053 16.6108 39.7624 16.9055 38.2492L15.924 38.058L14.9425 37.8668C14.7172 39.023 14.2533 39.7907 13.619 40.2855L14.234 41.074ZM15.924 38.058V39.058H19.876V38.058V37.058H15.924V38.058ZM19.876 38.058L18.8878 37.9051C18.6846 39.2176 18.2292 40.3387 17.5344 41.2903L18.342 41.88L19.1496 42.4697C20.0495 41.2373 20.6167 39.8104 20.8642 38.2109L19.876 38.058ZM18.342 41.88L17.5389 41.2842C16.8405 42.2255 15.955 42.9536 14.8681 43.4741L15.3 44.376L15.7319 45.2779C17.1064 44.6197 18.2488 43.6839 19.1451 42.4758L18.342 41.88ZM15.3 44.376L14.8681 43.4741C13.7874 43.9916 12.5596 44.26 11.166 44.26V45.26V46.26C12.8231 46.26 14.3513 45.9391 15.7319 45.2779L15.3 44.376Z" fill="black" mask="url(#path-2-outside-1_254_57)"/>
<path d="M34.5 30.7083C34.5 29.6917 34.0962 28.7166 33.3773 27.9978C32.6584 27.2789 31.6834 26.875 30.6667 26.875H24.9167V41.25H31.625C32.3875 41.25 33.1188 41.5529 33.658 42.0921C34.1971 42.6312 34.5 43.3625 34.5 44.125M34.5 30.7083V44.125M34.5 30.7083C34.5 29.6917 34.9039 28.7166 35.6228 27.9978C36.3417 27.2789 37.3167 26.875 38.3334 26.875H44.0834V41.25H37.375C36.6125 41.25 35.8813 41.5529 35.3421 42.0921C34.8029 42.6312 34.5 43.3625 34.5 44.125" stroke="#57EA83" stroke-width="3" stroke-linecap="round" stroke-linejoin="round"/>
</g>
<defs>
<clipPath id="clip0_254_57">
<rect width="48" height="48" fill="white"/>
</clipPath>
</defs>
</svg>
